<svg width="24" height="24" viewBox="0 0 24 24" fill="none" xmlns="http://www.w3.org/2000/svg">
<g id="favorite_border_24px">
<path id="icon/action/favorite_border_24px" fill-rule="evenodd" clip-rule="evenodd" d="M12 4.9152C13.09 3.6352 14.76 2.8252 16.5 2.8252C19.58 2.8252 22 5.2452 22 8.3252C22 12.1021 18.6056 15.1801 13.4627 19.8437L13.45 19.8552L12 21.1752L10.55 19.8652L10.5105 19.8293C5.38263 15.1694 2 12.0955 2 8.3252C2 5.2452 4.42 2.8252 7.5 2.8252C9.24 2.8252 10.91 3.6352 12 4.9152ZM12 18.4752L12.1 18.3752C16.86 14.0652 20 11.2152 20 8.3252C20 6.3252 18.5 4.8252 16.5 4.8252C14.96 4.8252 13.46 5.8152 12.94 7.18519H11.07C10.54 5.8152 9.04 4.8252 7.5 4.8252C5.5 4.8252 4 6.3252 4 8.3252C4 11.2152 7.14 14.0652 11.9 18.3752L12 18.4752Z" fill="#333333"/>
</g>
</svg>
